<svg width="73" height="146" viewBox="0 0 73 146" fill="none" xmlns="http://www.w3.org/2000/svg">
<g clip-path="url(#clip0_1056_1324)">
<path fill-rule="evenodd" clip-rule="evenodd" d="M-0.00439453 19.0345C-0.00439453 8.51704 8.52167 -0.0090332 19.0391 -0.0090332H53.9838C64.5012 -0.0090332 73.0273 8.51701 73.0273 19.0344V80.1672H73.0196C71.8831 86.3887 62.905 86.4135 61.9148 80.1672V102.22L61.9128 102.172V44.0478C61.9128 41.1982 59.6029 38.8879 56.753 38.8879C53.9035 38.8879 51.5932 41.1982 51.5932 44.0478V99.1253L51.571 98.7098C50.1789 103.772 43.1252 104.095 41.2738 99.1872V61.5129C41.2738 58.6633 38.9636 56.353 36.114 56.353C33.2642 56.353 30.9541 58.6633 30.9541 61.5129V107.954C29.625 113.016 22.5537 113.322 20.7932 108.392L20.6355 107.95L20.635 107.955V53.5743C20.635 50.7244 18.3248 48.4144 15.4751 48.4144C12.6254 48.4144 10.3152 50.7244 10.3152 53.5743V84.1365C9.30023 89.9127 1.01039 89.9127 -0.00439453 84.1362V19.0345ZM31.4845 112.714H31.7648C31.6325 112.507 31.5146 112.29 31.4123 112.065L31.4845 112.714ZM36.5111 144.468C41.7718 144.468 46.0369 140.202 46.0369 134.942C46.0369 129.681 41.7718 125.416 36.5111 125.416C31.2499 125.416 26.985 129.681 26.985 134.942C26.985 140.202 31.2499 144.468 36.5111 144.468Z" fill="white"/>
</g>
<defs>
<clipPath id="clip0_1056_1324">
<rect width="73" height="146" fill="white"/>
</clipPath>
</defs>
</svg>
