<svg width="35" height="32" viewBox="0 0 35 32" fill="none" xmlns="http://www.w3.org/2000/svg">
<g clip-path="url(#clip0_1532_1736)">
<path d="M7.20841 7.47451L1.4932 12.6998C0.565154 13.589 0.0473633 14.7708 0.0473633 15.9998C0.0473633 17.2289 0.565154 18.4107 1.4932 19.2998L7.20841 24.5252C7.4102 24.7162 7.65158 24.8686 7.91846 24.9734C8.18535 25.0782 8.47239 25.1334 8.76284 25.1357C9.0533 25.138 9.34135 25.0874 9.61018 24.9868C9.87902 24.8863 10.1233 24.7378 10.3286 24.55C10.534 24.3622 10.6965 24.1389 10.8065 23.8931C10.9164 23.6473 10.9718 23.3839 10.9693 23.1184C10.9667 22.8528 10.9064 22.5904 10.7918 22.3464C10.6771 22.1024 10.5105 21.8817 10.3015 21.6972L6.24883 17.9892L32.8634 17.9585C33.4436 17.9585 34 17.7478 34.4102 17.3727C34.8204 16.9977 35.0509 16.4889 35.0509 15.9585C35.0509 15.4281 34.8204 14.9194 34.4102 14.5443C34 14.1692 33.4436 13.9585 32.8634 13.9585L6.2707 13.9892L10.3015 10.3025C10.7 9.92531 10.9205 9.4201 10.9155 8.89571C10.9105 8.37131 10.6805 7.86969 10.2749 7.49887C9.86931 7.12806 9.32065 6.91772 8.7471 6.91316C8.17354 6.9086 7.62098 7.11019 7.20841 7.47451Z" fill="white"/>
</g>
<defs>
<clipPath id="clip0_1532_1736">
<rect width="35" height="32" fill="white"/>
</clipPath>
</defs>
</svg>
