<svg width="34" height="34" viewBox="0 0 34 34" fill="none" xmlns="http://www.w3.org/2000/svg">
<path d="M23.5113 20.0746C23.377 20.2089 23.1931 20.2938 22.981 20.2938C22.5709 20.2938 22.2315 19.9544 22.2315 19.5442L22.2315 11.7095L14.3967 11.7095C13.9866 11.7095 13.6472 11.3701 13.6472 10.96C13.6472 10.5498 13.9866 10.2104 14.3967 10.2104L22.981 10.2104C23.3911 10.2104 23.7305 10.5498 23.7305 10.96L23.7305 19.5442C23.7305 19.7564 23.6457 19.9402 23.5113 20.0746Z" fill="black"/>
<path d="M23.3911 11.6107L11.4905 23.5113C11.2006 23.8012 10.7198 23.8012 10.4299 23.5113C10.14 23.2214 10.14 22.7405 10.4299 22.4506L22.3305 10.55C22.6204 10.2601 23.1012 10.2601 23.3911 10.55C23.681 10.8399 23.681 11.3208 23.3911 11.6107Z" fill="black"/>
</svg>
