<svg width="49" height="49" viewBox="0 0 49 49" fill="none" xmlns="http://www.w3.org/2000/svg">
<circle cx="24.5" cy="24.5" r="23.5" fill="white" stroke="#7B6A52" stroke-width="2"/>
<path d="M24.2886 19.8708C23.005 19.8708 21.7738 20.3808 20.8661 21.2885C19.9584 22.1962 19.4485 23.4273 19.4485 24.711C19.4485 25.9947 19.9584 27.2258 20.8661 28.1335C21.7738 29.0412 23.005 29.5512 24.2886 29.5512C25.5723 29.5512 26.8034 29.0412 27.7112 28.1335C28.6189 27.2258 29.1288 25.9947 29.1288 24.711C29.1288 23.4273 28.6189 22.1962 27.7112 21.2885C26.8034 20.3808 25.5723 19.8708 24.2886 19.8708Z" fill="#7B6A52"/>
<path fill-rule="evenodd" clip-rule="evenodd" d="M24.2887 14.0627C24.5455 14.0627 24.7917 14.1647 24.9732 14.3463C25.1548 14.5278 25.2568 14.774 25.2568 15.0308V15.9988C25.2568 16.2555 25.1548 16.5018 24.9732 16.6833C24.7917 16.8649 24.5455 16.9668 24.2887 16.9668C24.032 16.9668 23.7858 16.8649 23.6042 16.6833C23.4227 16.5018 23.3207 16.2555 23.3207 15.9988V15.0308C23.3207 14.774 23.4227 14.5278 23.6042 14.3463C23.7858 14.1647 24.032 14.0627 24.2887 14.0627ZM15.8601 16.2824C16.0416 16.101 16.2878 15.999 16.5445 15.999C16.8012 15.999 17.0473 16.101 17.2289 16.2824L18.6809 17.7345C18.8573 17.9171 18.9548 18.1616 18.9526 18.4154C18.9504 18.6692 18.8486 18.912 18.6691 19.0915C18.4896 19.271 18.2469 19.3728 17.993 19.375C17.7392 19.3772 17.4947 19.2796 17.3121 19.1033L15.8601 17.6512C15.6786 17.4697 15.5767 17.2235 15.5767 16.9668C15.5767 16.7102 15.6786 16.464 15.8601 16.2824ZM32.7174 16.2824C32.8989 16.464 33.0008 16.7102 33.0008 16.9668C33.0008 17.2235 32.8989 17.4697 32.7174 17.6512L31.2653 19.1033C31.176 19.1957 31.0692 19.2695 30.9511 19.3202C30.833 19.371 30.706 19.3977 30.5774 19.3988C30.4489 19.3999 30.3214 19.3754 30.2025 19.3267C30.0835 19.2781 29.9754 19.2062 29.8845 19.1153C29.7936 19.0244 29.7218 18.9163 29.6731 18.7973C29.6244 18.6784 29.5999 18.5509 29.601 18.4224C29.6022 18.2938 29.6289 18.1668 29.6796 18.0487C29.7303 17.9306 29.8041 17.8238 29.8965 17.7345L31.3486 16.2824C31.5301 16.101 31.7763 15.999 32.033 15.999C32.2897 15.999 32.5358 16.101 32.7174 16.2824ZM13.6404 24.7111C13.6404 24.4544 13.7424 24.2081 13.9239 24.0266C14.1055 23.845 14.3517 23.7431 14.6084 23.7431H15.5764C15.8332 23.7431 16.0794 23.845 16.2609 24.0266C16.4425 24.2081 16.5445 24.4544 16.5445 24.7111C16.5445 24.9678 16.4425 25.2141 16.2609 25.3956C16.0794 25.5771 15.8332 25.6791 15.5764 25.6791H14.6084C14.3517 25.6791 14.1055 25.5771 13.9239 25.3956C13.7424 25.2141 13.6404 24.9678 13.6404 24.7111ZM32.033 24.7111C32.033 24.4544 32.135 24.2081 32.3165 24.0266C32.4981 23.845 32.7443 23.7431 33.001 23.7431H33.969C34.2258 23.7431 34.472 23.845 34.6535 24.0266C34.8351 24.2081 34.9371 24.4544 34.9371 24.7111C34.9371 24.9678 34.8351 25.2141 34.6535 25.3956C34.472 25.5771 34.2258 25.6791 33.969 25.6791H33.001C32.7443 25.6791 32.4981 25.5771 32.3165 25.3956C32.135 25.2141 32.033 24.9678 32.033 24.7111ZM18.6809 30.3189C18.8624 30.5004 18.9643 30.7466 18.9643 31.0033C18.9643 31.26 18.8624 31.5062 18.6809 31.6877L17.2289 33.1397C17.0463 33.3161 16.8018 33.4137 16.548 33.4114C16.2941 33.4092 16.0514 33.3074 15.8719 33.128C15.6924 32.9485 15.5906 32.7057 15.5884 32.4519C15.5862 32.198 15.6837 31.9535 15.8601 31.7709L17.3121 30.3189C17.4937 30.1374 17.7398 30.0355 17.9965 30.0355C18.2532 30.0355 18.4994 30.1374 18.6809 30.3189ZM29.8965 30.3189C30.0781 30.1374 30.3242 30.0355 30.5809 30.0355C30.8376 30.0355 31.0838 30.1374 31.2653 30.3189L32.7174 31.7709C32.8937 31.9535 32.9913 32.198 32.9891 32.4519C32.9869 32.7057 32.8851 32.9485 32.7056 33.128C32.5261 33.3074 32.2833 33.4092 32.0295 33.4114C31.7757 33.4137 31.5312 33.3161 31.3486 33.1397L29.8965 31.6877C29.7151 31.5062 29.6131 31.26 29.6131 31.0033C29.6131 30.7466 29.7151 30.5004 29.8965 30.3189ZM24.2887 32.4553C24.5455 32.4553 24.7917 32.5573 24.9732 32.7389C25.1548 32.9204 25.2568 33.1666 25.2568 33.4234V34.3914C25.2568 34.6481 25.1548 34.8944 24.9732 35.0759C24.7917 35.2575 24.5455 35.3594 24.2887 35.3594C24.032 35.3594 23.7858 35.2575 23.6042 35.0759C23.4227 34.8944 23.3207 34.6481 23.3207 34.3914V33.4234C23.3207 33.1666 23.4227 32.9204 23.6042 32.7389C23.7858 32.5573 24.032 32.4553 24.2887 32.4553Z" fill="#7B6A52"/>
</svg>
