<svg width="246" height="267" viewBox="0 0 246 267" fill="none" xmlns="http://www.w3.org/2000/svg">
<path d="M5.29048 8.09091V27H1.86506V8.09091H5.29048ZM12.1944 18.6903V27H8.8521V12.8182H12.0467V15.228H12.2129C12.5391 14.4339 13.0592 13.803 13.7733 13.3352C14.4934 12.8674 15.3829 12.6335 16.4416 12.6335C17.4203 12.6335 18.2728 12.8428 18.9991 13.2614C19.7316 13.6799 20.2979 14.2862 20.698 15.0803C21.1042 15.8743 21.3043 16.8376 21.2981 17.9702V27H17.9558V18.4872C17.9558 17.5393 17.7096 16.7976 17.2172 16.2621C16.7309 15.7266 16.0569 15.4588 15.1951 15.4588C14.6104 15.4588 14.0903 15.5881 13.6348 15.8466C13.1854 16.099 12.8315 16.4652 12.573 16.9453C12.3206 17.4254 12.1944 18.0071 12.1944 18.6903ZM31.7775 12.8182V15.4034H23.6248V12.8182H31.7775ZM25.6376 9.42045H28.9799V22.7344C28.9799 23.1837 29.0476 23.5284 29.1831 23.7685C29.3246 24.0024 29.5093 24.1624 29.737 24.2486C29.9648 24.3348 30.2172 24.3778 30.4941 24.3778C30.7034 24.3778 30.8942 24.3625 31.0666 24.3317C31.2451 24.3009 31.3805 24.2732 31.4728 24.2486L32.036 26.8615C31.8575 26.9231 31.6021 26.9908 31.2697 27.0646C30.9435 27.1385 30.5434 27.1816 30.0694 27.1939C29.2323 27.2185 28.4783 27.0923 27.8074 26.8153C27.1364 26.5322 26.604 26.0952 26.21 25.5043C25.8223 24.9134 25.6315 24.1747 25.6376 23.2884V9.42045ZM40.6989 27.277C39.277 27.277 38.049 26.9815 37.0149 26.3906C35.987 25.7936 35.196 24.9503 34.642 23.8608C34.0881 22.7652 33.8111 21.4756 33.8111 19.9922C33.8111 18.5334 34.0881 17.2531 34.642 16.1513C35.2022 15.0433 35.9839 14.1816 36.9872 13.5661C37.9905 12.9444 39.1693 12.6335 40.5234 12.6335C41.3975 12.6335 42.2223 12.7751 42.9979 13.0582C43.7796 13.3352 44.469 13.7661 45.0661 14.3509C45.6693 14.9356 46.1432 15.6804 46.4879 16.5852C46.8326 17.4839 47.005 18.5549 47.005 19.7983V20.8232H35.3807V18.5703H43.8011C43.795 17.9302 43.6565 17.3608 43.3857 16.8622C43.1148 16.3575 42.7363 15.9605 42.25 15.6712C41.7699 15.3819 41.2098 15.2372 40.5696 15.2372C39.8864 15.2372 39.2862 15.4034 38.7692 15.7358C38.2521 16.062 37.849 16.4929 37.5597 17.0284C37.2765 17.5578 37.1319 18.1394 37.1257 18.7734V20.7401C37.1257 21.5649 37.2765 22.2727 37.5781 22.8636C37.8797 23.4484 38.3014 23.8977 38.843 24.2116C39.3847 24.5194 40.0187 24.6733 40.745 24.6733C41.2313 24.6733 41.6714 24.6056 42.0653 24.4702C42.4593 24.3286 42.8009 24.1224 43.0902 23.8516C43.3795 23.5807 43.598 23.2453 43.7457 22.8452L46.8665 23.196C46.6695 24.0208 46.294 24.741 45.7401 25.3565C45.1922 25.9659 44.4905 26.4399 43.6349 26.7784C42.7794 27.1108 41.8007 27.277 40.6989 27.277ZM49.8326 27V12.8182H53.0733V15.1818H53.2211C53.4796 14.3632 53.9228 13.7322 54.5506 13.2891C55.1846 12.8397 55.9078 12.6151 56.7203 12.6151C56.905 12.6151 57.1112 12.6243 57.339 12.6428C57.5729 12.6551 57.7667 12.6766 57.9206 12.7074V15.782C57.7791 15.7327 57.5544 15.6896 57.2466 15.6527C56.945 15.6096 56.6526 15.5881 56.3695 15.5881C55.7601 15.5881 55.2123 15.7204 54.726 15.9851C54.2459 16.2436 53.8674 16.6037 53.5904 17.0653C53.3134 17.527 53.1749 18.0594 53.1749 18.6626V27H49.8326Z" fill="white"/>
<path d="M27.1364 240H4.77273L55.0227 100.364H79.3636L129.614 240H107.25L67.7727 125.727H66.6818L27.1364 240ZM30.8864 185.318H103.432V203.045H30.8864V185.318ZM179.869 242.318C173.233 242.318 167.233 241.091 161.869 238.636C156.506 236.136 152.256 232.523 149.119 227.795C146.028 223.068 144.483 217.273 144.483 210.409C144.483 204.5 145.619 199.636 147.892 195.818C150.165 192 153.233 188.977 157.097 186.75C160.96 184.523 165.278 182.841 170.051 181.705C174.824 180.568 179.688 179.705 184.642 179.114C190.915 178.386 196.006 177.795 199.915 177.341C203.824 176.841 206.665 176.045 208.438 174.955C210.21 173.864 211.097 172.091 211.097 169.636V169.159C211.097 163.205 209.415 158.591 206.051 155.318C202.733 152.045 197.778 150.409 191.188 150.409C184.324 150.409 178.915 151.932 174.96 154.977C171.051 157.977 168.347 161.318 166.847 165L147.688 160.636C149.96 154.273 153.278 149.136 157.642 145.227C162.051 141.273 167.119 138.409 172.847 136.636C178.574 134.818 184.597 133.909 190.915 133.909C195.097 133.909 199.528 134.409 204.21 135.409C208.938 136.364 213.347 138.136 217.438 140.727C221.574 143.318 224.96 147.023 227.597 151.841C230.233 156.614 231.551 162.818 231.551 170.455V240H211.642V225.682H210.824C209.506 228.318 207.528 230.909 204.892 233.455C202.256 236 198.869 238.114 194.733 239.795C190.597 241.477 185.642 242.318 179.869 242.318ZM184.301 225.955C189.938 225.955 194.756 224.841 198.756 222.614C202.801 220.386 205.869 217.477 207.96 213.886C210.097 210.25 211.165 206.364 211.165 202.227V188.727C210.438 189.455 209.028 190.136 206.938 190.773C204.892 191.364 202.551 191.886 199.915 192.341C197.278 192.75 194.71 193.136 192.21 193.5C189.71 193.818 187.619 194.091 185.938 194.318C181.983 194.818 178.369 195.659 175.097 196.841C171.869 198.023 169.278 199.727 167.324 201.955C165.415 204.136 164.46 207.045 164.46 210.682C164.46 215.727 166.324 219.545 170.051 222.136C173.778 224.682 178.528 225.955 184.301 225.955Z" fill="white"/>
</svg>
