<svg width="246" height="267" viewBox="0 0 246 267" fill="none" xmlns="http://www.w3.org/2000/svg">
<path d="M1.86506 8.09091H6.05682L11.6705 21.7926H11.892L17.5057 8.09091H21.6974V27H18.4105V14.0092H18.2351L13.0092 26.9446H10.5533L5.32742 13.9815H5.15199V27H1.86506V8.09091ZM34.3189 21.0355V12.8182H37.6612V27H34.4205V24.4794H34.2727C33.9527 25.2734 33.4264 25.9228 32.6939 26.4276C31.9676 26.9323 31.072 27.1847 30.0071 27.1847C29.0777 27.1847 28.2559 26.9785 27.5419 26.5661C26.834 26.1475 26.2801 25.5412 25.88 24.7472C25.4799 23.947 25.2798 22.9806 25.2798 21.848V12.8182H28.6222V21.331C28.6222 22.2296 28.8684 22.9437 29.3608 23.473C29.8532 24.0024 30.4995 24.267 31.2997 24.267C31.7921 24.267 32.2692 24.147 32.7308 23.907C33.1925 23.6669 33.571 23.3099 33.8665 22.8359C34.1681 22.3558 34.3189 21.7557 34.3189 21.0355ZM44.1451 22.5497L44.1358 18.5149H44.6713L49.7679 12.8182H53.6735L47.4043 19.7983H46.7118L44.1451 22.5497ZM41.0982 27V8.09091H44.4405V27H41.0982ZM49.9988 27L45.3823 20.5462L47.6351 18.1918L53.9966 27H49.9988ZM62.9826 12.8182V15.4034H54.8299V12.8182H62.9826ZM56.8427 9.42045H60.185V22.7344C60.185 23.1837 60.2527 23.5284 60.3881 23.7685C60.5297 24.0024 60.7144 24.1624 60.9421 24.2486C61.1699 24.3348 61.4222 24.3778 61.6992 24.3778C61.9085 24.3778 62.0993 24.3625 62.2717 24.3317C62.4502 24.3009 62.5856 24.2732 62.6779 24.2486L63.2411 26.8615C63.0626 26.9231 62.8072 26.9908 62.4748 27.0646C62.1486 27.1385 61.7485 27.1816 61.2745 27.1939C60.4374 27.2185 59.6834 27.0923 59.0124 26.8153C58.3415 26.5322 57.8091 26.0952 57.4151 25.5043C57.0273 24.9134 56.8365 24.1747 56.8427 23.2884V9.42045ZM69.8588 27.2862C68.9602 27.2862 68.1507 27.1262 67.4306 26.8061C66.7166 26.4799 66.1503 25.9998 65.7317 25.3658C65.3193 24.7318 65.1131 23.95 65.1131 23.0206C65.1131 22.2204 65.2608 21.5587 65.5563 21.0355C65.8517 20.5123 66.2549 20.0938 66.7658 19.7798C67.2767 19.4659 67.8522 19.2289 68.4924 19.0689C69.1387 18.9027 69.8065 18.7827 70.4959 18.7088C71.3269 18.6226 72.0009 18.5457 72.5179 18.478C73.035 18.4041 73.4105 18.2933 73.6444 18.1456C73.8844 17.9917 74.0044 17.7547 74.0044 17.4347V17.3793C74.0044 16.6837 73.7982 16.1451 73.3858 15.7635C72.9734 15.3819 72.3794 15.1911 71.6039 15.1911C70.7852 15.1911 70.1358 15.3696 69.6557 15.7266C69.1818 16.0836 68.8617 16.5052 68.6955 16.9915L65.5748 16.5483C65.821 15.6866 66.2272 14.9664 66.7935 14.3878C67.3598 13.803 68.0523 13.366 68.8709 13.0767C69.6896 12.7812 70.5944 12.6335 71.5854 12.6335C72.2686 12.6335 72.9488 12.7135 73.6259 12.8736C74.303 13.0336 74.9216 13.2983 75.4817 13.6676C76.0418 14.0308 76.4912 14.5263 76.8297 15.1541C77.1744 15.782 77.3468 16.5668 77.3468 17.5085V27H74.1337V25.0518H74.0229C73.8198 25.4458 73.5336 25.8151 73.1642 26.1598C72.8011 26.4983 72.3425 26.7723 71.7885 26.9815C71.2407 27.1847 70.5975 27.2862 69.8588 27.2862ZM70.7267 24.8303C71.3977 24.8303 71.9793 24.6979 72.4718 24.4332C72.9642 24.1624 73.3427 23.8054 73.6074 23.3622C73.8783 22.919 74.0137 22.4358 74.0137 21.9126V20.2415C73.909 20.3277 73.7305 20.4077 73.4782 20.4815C73.2319 20.5554 72.955 20.62 72.6472 20.6754C72.3394 20.7308 72.0347 20.7801 71.7331 20.8232C71.4315 20.8662 71.1699 20.9032 70.9483 20.9339C70.4498 21.0017 70.0035 21.1125 69.6096 21.2663C69.2156 21.4202 68.9048 21.6357 68.677 21.9126C68.4493 22.1835 68.3354 22.5343 68.3354 22.9652C68.3354 23.5807 68.5601 24.0455 69.0094 24.3594C69.4587 24.6733 70.0312 24.8303 70.7267 24.8303ZM97.5808 13.2891C97.4946 12.4827 97.1315 11.8549 96.4913 11.4055C95.8573 10.9562 95.0325 10.7315 94.0169 10.7315C93.3029 10.7315 92.6904 10.8393 92.1795 11.0547C91.6686 11.2701 91.2778 11.5625 91.0069 11.9318C90.7361 12.3011 90.5976 12.7228 90.5914 13.1967C90.5914 13.5907 90.6807 13.9323 90.8592 14.2216C91.0439 14.5109 91.2931 14.7571 91.6071 14.9602C91.921 15.1572 92.2688 15.3234 92.6504 15.4588C93.032 15.5942 93.4167 15.7081 93.8045 15.8004L95.5772 16.2436C96.2913 16.4098 96.9776 16.6345 97.6362 16.9176C98.301 17.2008 98.8949 17.5578 99.4181 17.9886C99.9475 18.4195 100.366 18.9396 100.674 19.549C100.982 20.1584 101.135 20.8724 101.135 21.6911C101.135 22.799 100.852 23.7746 100.286 24.6179C99.7198 25.455 98.9011 26.1106 97.8301 26.5845C96.7652 27.0523 95.4757 27.2862 93.9615 27.2862C92.4904 27.2862 91.2131 27.0585 90.1298 26.603C89.0526 26.1475 88.2093 25.4827 87.6 24.6087C86.9967 23.7346 86.6705 22.6697 86.6213 21.4141H89.9913C90.0405 22.0727 90.2437 22.6205 90.6007 23.0575C90.9577 23.4946 91.4224 23.8208 91.9949 24.0362C92.5734 24.2517 93.2198 24.3594 93.9338 24.3594C94.6786 24.3594 95.331 24.2486 95.8912 24.027C96.4574 23.7992 96.9006 23.4853 97.2207 23.0852C97.5408 22.679 97.7039 22.205 97.71 21.6634C97.7039 21.1709 97.5592 20.7647 97.2761 20.4446C96.993 20.1184 96.5959 19.8475 96.085 19.6321C95.5803 19.4105 94.9894 19.2135 94.3123 19.0412L92.161 18.4872C90.6038 18.0871 89.3727 17.4808 88.4679 16.6683C87.5692 15.8497 87.1199 14.7633 87.1199 13.4091C87.1199 12.295 87.4215 11.3194 88.0247 10.4822C88.6341 9.64512 89.4619 8.99574 90.5083 8.53409C91.5547 8.06629 92.7396 7.83239 94.063 7.83239C95.4049 7.83239 96.5806 8.06629 97.59 8.53409C98.6056 8.99574 99.4028 9.63897 99.9814 10.4638C100.56 11.2824 100.858 12.2242 100.877 13.2891H97.5808ZM110.32 27.277C108.898 27.277 107.67 26.9815 106.636 26.3906C105.608 25.7936 104.817 24.9503 104.263 23.8608C103.709 22.7652 103.432 21.4756 103.432 19.9922C103.432 18.5334 103.709 17.2531 104.263 16.1513C104.823 15.0433 105.605 14.1816 106.608 13.5661C107.612 12.9444 108.79 12.6335 110.145 12.6335C111.019 12.6335 111.843 12.7751 112.619 13.0582C113.401 13.3352 114.09 13.7661 114.687 14.3509C115.29 14.9356 115.764 15.6804 116.109 16.5852C116.454 17.4839 116.626 18.5549 116.626 19.7983V20.8232H105.002V18.5703H113.422C113.416 17.9302 113.278 17.3608 113.007 16.8622C112.736 16.3575 112.357 15.9605 111.871 15.6712C111.391 15.3819 110.831 15.2372 110.191 15.2372C109.507 15.2372 108.907 15.4034 108.39 15.7358C107.873 16.062 107.47 16.4929 107.181 17.0284C106.898 17.5578 106.753 18.1394 106.747 18.7734V20.7401C106.747 21.5649 106.898 22.2727 107.199 22.8636C107.501 23.4484 107.922 23.8977 108.464 24.2116C109.006 24.5194 109.64 24.6733 110.366 24.6733C110.852 24.6733 111.292 24.6056 111.686 24.4702C112.08 24.3286 112.422 24.1224 112.711 23.8516C113.001 23.5807 113.219 23.2453 113.367 22.8452L116.488 23.196C116.291 24.0208 115.915 24.741 115.361 25.3565C114.813 25.9659 114.112 26.4399 113.256 26.7784C112.4 27.1108 111.422 27.277 110.32 27.277ZM119.454 27V12.8182H122.648V15.228H122.814C123.11 14.4155 123.599 13.7815 124.282 13.326C124.966 12.8643 125.781 12.6335 126.729 12.6335C127.689 12.6335 128.499 12.8674 129.157 13.3352C129.822 13.7969 130.29 14.4278 130.561 15.228H130.709C131.023 14.4401 131.552 13.8123 132.297 13.3445C133.048 12.8705 133.937 12.6335 134.965 12.6335C136.27 12.6335 137.335 13.0459 138.16 13.8707C138.984 14.6955 139.397 15.8989 139.397 17.4808V27H136.045V17.9979C136.045 17.1177 135.811 16.4744 135.344 16.0682C134.876 15.6558 134.303 15.4496 133.626 15.4496C132.82 15.4496 132.189 15.7019 131.733 16.2067C131.284 16.7053 131.059 17.3546 131.059 18.1548V27H127.782V17.8594C127.782 17.1269 127.56 16.5421 127.117 16.1051C126.68 15.6681 126.108 15.4496 125.4 15.4496C124.92 15.4496 124.483 15.5727 124.089 15.8189C123.695 16.0589 123.381 16.4006 123.147 16.8438C122.913 17.2808 122.796 17.7917 122.796 18.3764V27H119.454ZM142.788 27V12.8182H146.13V27H142.788ZM144.468 10.8054C143.939 10.8054 143.483 10.63 143.102 10.2791C142.72 9.92211 142.529 9.49432 142.529 8.99574C142.529 8.491 142.72 8.06321 143.102 7.71236C143.483 7.35535 143.939 7.17685 144.468 7.17685C145.004 7.17685 145.459 7.35535 145.835 7.71236C146.216 8.06321 146.407 8.491 146.407 8.99574C146.407 9.49432 146.216 9.92211 145.835 10.2791C145.459 10.63 145.004 10.8054 144.468 10.8054ZM149.715 27V8.09091H153.057V15.1634H153.195C153.368 14.8187 153.611 14.4524 153.925 14.0646C154.239 13.6707 154.664 13.3352 155.199 13.0582C155.735 12.7751 156.418 12.6335 157.249 12.6335C158.344 12.6335 159.332 12.9136 160.213 13.4737C161.099 14.0277 161.801 14.8494 162.318 15.9389C162.841 17.0223 163.102 18.3518 163.102 19.9276C163.102 21.4848 162.847 22.8082 162.336 23.8977C161.825 24.9872 161.13 25.8182 160.249 26.3906C159.369 26.9631 158.372 27.2493 157.258 27.2493C156.445 27.2493 155.771 27.1139 155.236 26.843C154.7 26.5722 154.27 26.246 153.943 25.8643C153.623 25.4766 153.374 25.1103 153.195 24.7656H153.002V27H149.715ZM152.992 19.9091C152.992 20.8262 153.122 21.6295 153.38 22.3189C153.645 23.0083 154.023 23.5469 154.516 23.9347C155.014 24.3163 155.618 24.5071 156.325 24.5071C157.064 24.5071 157.683 24.3101 158.181 23.9162C158.68 23.5161 159.055 22.9714 159.308 22.282C159.566 21.5864 159.695 20.7955 159.695 19.9091C159.695 19.0289 159.569 18.2472 159.317 17.5639C159.065 16.8807 158.689 16.3452 158.191 15.9574C157.692 15.5696 157.07 15.3757 156.325 15.3757C155.611 15.3757 155.005 15.5634 154.507 15.9389C154.008 16.3144 153.629 16.8407 153.371 17.5178C153.119 18.1948 152.992 18.992 152.992 19.9091ZM172.13 27.277C170.745 27.277 169.545 26.9723 168.529 26.3629C167.513 25.7536 166.726 24.901 166.165 23.8054C165.612 22.7098 165.335 21.4295 165.335 19.9645C165.335 18.4995 165.612 17.2161 166.165 16.1143C166.726 15.0125 167.513 14.157 168.529 13.5476C169.545 12.9382 170.745 12.6335 172.13 12.6335C173.515 12.6335 174.715 12.9382 175.731 13.5476C176.746 14.157 177.531 15.0125 178.085 16.1143C178.645 17.2161 178.925 18.4995 178.925 19.9645C178.925 21.4295 178.645 22.7098 178.085 23.8054C177.531 24.901 176.746 25.7536 175.731 26.3629C174.715 26.9723 173.515 27.277 172.13 27.277ZM172.148 24.5994C172.899 24.5994 173.527 24.3932 174.032 23.9808C174.537 23.5623 174.912 23.0021 175.158 22.3004C175.411 21.5987 175.537 20.817 175.537 19.9553C175.537 19.0874 175.411 18.3026 175.158 17.6009C174.912 16.893 174.537 16.3298 174.032 15.9112C173.527 15.4927 172.899 15.2834 172.148 15.2834C171.379 15.2834 170.739 15.4927 170.228 15.9112C169.723 16.3298 169.345 16.893 169.092 17.6009C168.846 18.3026 168.723 19.0874 168.723 19.9553C168.723 20.817 168.846 21.5987 169.092 22.3004C169.345 23.0021 169.723 23.5623 170.228 23.9808C170.739 24.3932 171.379 24.5994 172.148 24.5994ZM185.105 8.09091V27H181.762V8.09091H185.105ZM193.804 27.2493C192.69 27.2493 191.693 26.9631 190.813 26.3906C189.933 25.8182 189.237 24.9872 188.726 23.8977C188.215 22.8082 187.96 21.4848 187.96 19.9276C187.96 18.3518 188.218 17.0223 188.735 15.9389C189.259 14.8494 189.963 14.0277 190.85 13.4737C191.736 12.9136 192.724 12.6335 193.814 12.6335C194.645 12.6335 195.328 12.7751 195.863 13.0582C196.399 13.3352 196.824 13.6707 197.137 14.0646C197.451 14.4524 197.694 14.8187 197.867 15.1634H198.005V8.09091H201.357V27H198.07V24.7656H197.867C197.694 25.1103 197.445 25.4766 197.119 25.8643C196.793 26.246 196.362 26.5722 195.826 26.843C195.291 27.1139 194.617 27.2493 193.804 27.2493ZM194.737 24.5071C195.445 24.5071 196.048 24.3163 196.547 23.9347C197.045 23.5469 197.424 23.0083 197.682 22.3189C197.941 21.6295 198.07 20.8262 198.07 19.9091C198.07 18.992 197.941 18.1948 197.682 17.5178C197.43 16.8407 197.054 16.3144 196.556 15.9389C196.063 15.5634 195.457 15.3757 194.737 15.3757C193.992 15.3757 193.37 15.5696 192.872 15.9574C192.373 16.3452 191.998 16.8807 191.745 17.5639C191.493 18.2472 191.367 19.0289 191.367 19.9091C191.367 20.7955 191.493 21.5864 191.745 22.282C192.004 22.9714 192.382 23.5161 192.881 23.9162C193.386 24.3101 194.004 24.5071 194.737 24.5071Z" fill="white"/>
<path d="M22.8 253H2.4L55.2 108.4H77L130 253H109.4L96.4 217H35.6L22.8 253ZM63.6 139.6L41.6 200H90.6L68.4 139.6C68 138.133 67.5333 136.667 67 135.2C66.4667 133.6 66.1333 132.267 66 131.2C65.7333 132.267 65.4 133.6 65 135.2C64.6 136.667 64.1333 138.133 63.6 139.6ZM175.091 255.4C164.691 255.4 156.491 252.667 150.491 247.2C144.624 241.733 141.691 234.6 141.691 225.8C141.691 216.867 144.891 209.733 151.291 204.4C157.691 198.933 166.624 195.733 178.091 194.8L208.891 192.4V189.6C208.891 184.133 207.891 179.8 205.891 176.6C203.891 173.267 201.157 170.933 197.691 169.6C194.224 168.133 190.291 167.4 185.891 167.4C178.024 167.4 171.891 169.067 167.491 172.4C163.224 175.6 161.091 180.2 161.091 186.2H144.691C144.691 179.4 146.424 173.467 149.891 168.4C153.357 163.333 158.224 159.4 164.491 156.6C170.891 153.8 178.291 152.4 186.691 152.4C194.824 152.4 201.891 153.867 207.891 156.8C214.024 159.6 218.757 163.933 222.091 169.8C225.557 175.533 227.291 182.8 227.291 191.6V253H211.291L209.291 237.2C206.757 242.8 202.357 247.267 196.091 250.6C189.957 253.8 182.957 255.4 175.091 255.4ZM180.491 240.8C189.424 240.8 196.424 238.133 201.491 232.8C206.557 227.333 209.091 220 209.091 210.8V205.6L184.091 207.6C175.824 208.4 169.824 210.333 166.091 213.4C162.491 216.467 160.691 220.4 160.691 225.2C160.691 230.4 162.424 234.333 165.891 237C169.491 239.533 174.357 240.8 180.491 240.8Z" fill="white"/>
</svg>
