<svg width="246" height="270" viewBox="0 0 246 270" fill="none" xmlns="http://www.w3.org/2000/svg">
<path d="M1.90039 9.09375H9.13281C10.6458 9.09375 11.9447 9.32161 13.0293 9.77734C14.1139 10.2331 14.9479 10.9076 15.5312 11.8008C16.1146 12.694 16.4062 13.7923 16.4062 15.0957C16.4062 16.1257 16.224 17.0189 15.8594 17.7754C15.4948 18.5319 14.9798 19.1654 14.3145 19.6758C13.6582 20.1862 12.8835 20.5872 11.9902 20.8789L10.8145 21.4805H4.42969L4.40234 18.5137H9.17383C9.94857 18.5137 10.5911 18.377 11.1016 18.1035C11.612 17.8301 11.9948 17.4518 12.25 16.9688C12.5143 16.4857 12.6465 15.9342 12.6465 15.3145C12.6465 14.6491 12.5189 14.0749 12.2637 13.5918C12.0085 13.0996 11.6211 12.7214 11.1016 12.457C10.582 12.1927 9.92578 12.0605 9.13281 12.0605H5.66016V29H1.90039V9.09375ZM13.1387 29L8.53125 20.0859L12.5098 20.0723L17.1719 28.8086V29H13.1387ZM18.7852 21.7539V21.4668C18.7852 20.3822 18.9401 19.3841 19.25 18.4727C19.5599 17.5521 20.0111 16.7546 20.6035 16.0801C21.196 15.4056 21.9206 14.8815 22.7773 14.5078C23.6341 14.125 24.6094 13.9336 25.7031 13.9336C26.8151 13.9336 27.7995 14.125 28.6562 14.5078C29.5221 14.8815 30.2513 15.4056 30.8438 16.0801C31.4362 16.7546 31.8874 17.5521 32.1973 18.4727C32.5072 19.3841 32.6621 20.3822 32.6621 21.4668V21.7539C32.6621 22.8294 32.5072 23.8275 32.1973 24.748C31.8874 25.6595 31.4362 26.457 30.8438 27.1406C30.2513 27.8151 29.5267 28.3392 28.6699 28.7129C27.8132 29.0866 26.8333 29.2734 25.7305 29.2734C24.6367 29.2734 23.6569 29.0866 22.791 28.7129C21.9251 28.3392 21.196 27.8151 20.6035 27.1406C20.0111 26.457 19.5599 25.6595 19.25 24.748C18.9401 23.8275 18.7852 22.8294 18.7852 21.7539ZM22.3945 21.4668V21.7539C22.3945 22.401 22.4583 23.0072 22.5859 23.5723C22.7135 24.1374 22.9095 24.6341 23.1738 25.0625C23.4382 25.4909 23.7799 25.8281 24.1992 26.0742C24.6276 26.3112 25.138 26.4297 25.7305 26.4297C26.3138 26.4297 26.8151 26.3112 27.2344 26.0742C27.6536 25.8281 27.9954 25.4909 28.2598 25.0625C28.5332 24.6341 28.7337 24.1374 28.8613 23.5723C28.9889 23.0072 29.0527 22.401 29.0527 21.7539V21.4668C29.0527 20.8288 28.9889 20.2318 28.8613 19.6758C28.7337 19.1107 28.5332 18.6139 28.2598 18.1855C27.9954 17.748 27.6491 17.4062 27.2207 17.1602C26.8014 16.9049 26.2956 16.7773 25.7031 16.7773C25.1198 16.7773 24.6185 16.9049 24.1992 17.1602C23.7799 17.4062 23.4382 17.748 23.1738 18.1855C22.9095 18.6139 22.7135 19.1107 22.5859 19.6758C22.4583 20.2318 22.3945 20.8288 22.3945 21.4668ZM35.2734 8H38.8965V25.7324L38.541 29H35.2734V8ZM48.4121 21.4531V21.7402C48.4121 22.8431 48.2891 23.8548 48.043 24.7754C47.806 25.696 47.446 26.4935 46.9629 27.168C46.4798 27.8333 45.8783 28.3529 45.1582 28.7266C44.4473 29.0911 43.6133 29.2734 42.6562 29.2734C41.7448 29.2734 40.9518 29.0957 40.2773 28.7402C39.612 28.3848 39.0514 27.8835 38.5957 27.2363C38.14 26.5801 37.7754 25.8099 37.502 24.9258C37.2285 24.0326 37.0234 23.0573 36.8867 22V21.2207C37.0234 20.1543 37.2285 19.179 37.502 18.2949C37.7754 17.4108 38.14 16.6406 38.5957 15.9844C39.0514 15.3281 39.612 14.8223 40.2773 14.4668C40.9427 14.1113 41.7266 13.9336 42.6289 13.9336C43.5951 13.9336 44.4382 14.1204 45.1582 14.4941C45.8874 14.8587 46.4889 15.3783 46.9629 16.0527C47.446 16.7181 47.806 17.5111 48.043 18.4316C48.2891 19.3431 48.4121 20.3503 48.4121 21.4531ZM44.7891 21.7402V21.4531C44.7891 20.8242 44.7389 20.2318 44.6387 19.6758C44.5384 19.1107 44.3743 18.6139 44.1465 18.1855C43.9186 17.7572 43.6087 17.4199 43.2168 17.1738C42.8249 16.9277 42.3327 16.8047 41.7402 16.8047C41.1751 16.8047 40.6921 16.9004 40.291 17.0918C39.8991 17.2832 39.571 17.5475 39.3066 17.8848C39.0514 18.222 38.8509 18.6185 38.7051 19.0742C38.5684 19.5299 38.4772 20.0221 38.4316 20.5508V22.6836C38.4954 23.3854 38.6458 24.0189 38.8828 24.584C39.1198 25.14 39.4707 25.582 39.9355 25.9102C40.4095 26.2383 41.0202 26.4023 41.7676 26.4023C42.3509 26.4023 42.8385 26.2884 43.2305 26.0605C43.6224 25.8236 43.9323 25.4954 44.1602 25.0762C44.388 24.6478 44.5475 24.151 44.6387 23.5859C44.7389 23.0208 44.7891 22.4056 44.7891 21.7402ZM50.3945 21.7539V21.4668C50.3945 20.3822 50.5495 19.3841 50.8594 18.4727C51.1693 17.5521 51.6204 16.7546 52.2129 16.0801C52.8053 15.4056 53.5299 14.8815 54.3867 14.5078C55.2435 14.125 56.2188 13.9336 57.3125 13.9336C58.4245 13.9336 59.4089 14.125 60.2656 14.5078C61.1315 14.8815 61.8607 15.4056 62.4531 16.0801C63.0456 16.7546 63.4967 17.5521 63.8066 18.4727C64.1165 19.3841 64.2715 20.3822 64.2715 21.4668V21.7539C64.2715 22.8294 64.1165 23.8275 63.8066 24.748C63.4967 25.6595 63.0456 26.457 62.4531 27.1406C61.8607 27.8151 61.1361 28.3392 60.2793 28.7129C59.4225 29.0866 58.4427 29.2734 57.3398 29.2734C56.2461 29.2734 55.2663 29.0866 54.4004 28.7129C53.5345 28.3392 52.8053 27.8151 52.2129 27.1406C51.6204 26.457 51.1693 25.6595 50.8594 24.748C50.5495 23.8275 50.3945 22.8294 50.3945 21.7539ZM54.0039 21.4668V21.7539C54.0039 22.401 54.0677 23.0072 54.1953 23.5723C54.3229 24.1374 54.5189 24.6341 54.7832 25.0625C55.0475 25.4909 55.3893 25.8281 55.8086 26.0742C56.237 26.3112 56.7474 26.4297 57.3398 26.4297C57.9232 26.4297 58.4245 26.3112 58.8438 26.0742C59.263 25.8281 59.6048 25.4909 59.8691 25.0625C60.1426 24.6341 60.3431 24.1374 60.4707 23.5723C60.5983 23.0072 60.6621 22.401 60.6621 21.7539V21.4668C60.6621 20.8288 60.5983 20.2318 60.4707 19.6758C60.3431 19.1107 60.1426 18.6139 59.8691 18.1855C59.6048 17.748 59.2585 17.4062 58.8301 17.1602C58.4108 16.9049 57.9049 16.7773 57.3125 16.7773C56.7292 16.7773 56.2279 16.9049 55.8086 17.1602C55.3893 17.4062 55.0475 17.748 54.7832 18.1855C54.5189 18.6139 54.3229 19.1107 54.1953 19.6758C54.0677 20.2318 54.0039 20.8288 54.0039 21.4668ZM73.8965 14.207V16.8047H65.4199V14.207H73.8965ZM67.6895 10.5703H71.3125V24.7344C71.3125 25.1719 71.3717 25.5091 71.4902 25.7461C71.6087 25.9831 71.7865 26.1426 72.0234 26.2246C72.2604 26.3066 72.543 26.3477 72.8711 26.3477C73.1081 26.3477 73.3268 26.334 73.5273 26.3066C73.7279 26.2793 73.8965 26.252 74.0332 26.2246L74.0469 28.9316C73.7461 29.0319 73.4043 29.1139 73.0215 29.1777C72.6478 29.2415 72.224 29.2734 71.75 29.2734C70.9388 29.2734 70.2279 29.1367 69.6172 28.8633C69.0065 28.5807 68.5326 28.1296 68.1953 27.5098C67.8581 26.8809 67.6895 26.0514 67.6895 25.0215V10.5703ZM75.3047 21.7539V21.4668C75.3047 20.3822 75.4596 19.3841 75.7695 18.4727C76.0794 17.5521 76.5306 16.7546 77.123 16.0801C77.7155 15.4056 78.4401 14.8815 79.2969 14.5078C80.1536 14.125 81.1289 13.9336 82.2227 13.9336C83.3346 13.9336 84.319 14.125 85.1758 14.5078C86.0417 14.8815 86.7708 15.4056 87.3633 16.0801C87.9557 16.7546 88.4069 17.5521 88.7168 18.4727C89.0267 19.3841 89.1816 20.3822 89.1816 21.4668V21.7539C89.1816 22.8294 89.0267 23.8275 88.7168 24.748C88.4069 25.6595 87.9557 26.457 87.3633 27.1406C86.7708 27.8151 86.0462 28.3392 85.1895 28.7129C84.3327 29.0866 83.3529 29.2734 82.25 29.2734C81.1562 29.2734 80.1764 29.0866 79.3105 28.7129C78.4447 28.3392 77.7155 27.8151 77.123 27.1406C76.5306 26.457 76.0794 25.6595 75.7695 24.748C75.4596 23.8275 75.3047 22.8294 75.3047 21.7539ZM78.9141 21.4668V21.7539C78.9141 22.401 78.9779 23.0072 79.1055 23.5723C79.2331 24.1374 79.429 24.6341 79.6934 25.0625C79.9577 25.4909 80.2995 25.8281 80.7188 26.0742C81.1471 26.3112 81.6576 26.4297 82.25 26.4297C82.8333 26.4297 83.3346 26.3112 83.7539 26.0742C84.1732 25.8281 84.515 25.4909 84.7793 25.0625C85.0527 24.6341 85.2533 24.1374 85.3809 23.5723C85.5085 23.0072 85.5723 22.401 85.5723 21.7539V21.4668C85.5723 20.8288 85.5085 20.2318 85.3809 19.6758C85.2533 19.1107 85.0527 18.6139 84.7793 18.1855C84.515 17.748 84.1686 17.4062 83.7402 17.1602C83.321 16.9049 82.8151 16.7773 82.2227 16.7773C81.6393 16.7773 81.138 16.9049 80.7188 17.1602C80.2995 17.4062 79.9577 17.748 79.6934 18.1855C79.429 18.6139 79.2331 19.1107 79.1055 19.6758C78.9779 20.2318 78.9141 20.8288 78.9141 21.4668Z" fill="white"/>
<path d="M69.8242 123.758L27.3438 247H1.66016L55.1758 104.812H71.582L69.8242 123.758ZM105.371 247L62.793 123.758L60.9375 104.812H77.4414L131.152 247H105.371ZM103.32 194.266V213.699H25.9766V194.266H103.32ZM205.547 225.809V175.418C205.547 171.642 204.863 168.387 203.496 165.652C202.129 162.918 200.046 160.802 197.246 159.305C194.512 157.807 191.061 157.059 186.895 157.059C183.053 157.059 179.733 157.71 176.934 159.012C174.134 160.314 171.953 162.072 170.391 164.285C168.828 166.499 168.047 169.005 168.047 171.805H144.609C144.609 167.638 145.618 163.602 147.637 159.695C149.655 155.789 152.585 152.306 156.426 149.246C160.267 146.186 164.857 143.777 170.195 142.02C175.534 140.262 181.523 139.383 188.164 139.383C196.107 139.383 203.138 140.717 209.258 143.387C215.443 146.056 220.293 150.092 223.809 155.496C227.389 160.835 229.18 167.54 229.18 175.613V222.586C229.18 227.404 229.505 231.733 230.156 235.574C230.872 239.35 231.882 242.638 233.184 245.438V247H209.062C207.956 244.461 207.077 241.238 206.426 237.332C205.84 233.361 205.547 229.52 205.547 225.809ZM208.965 182.742L209.16 197.293H192.266C187.904 197.293 184.062 197.716 180.742 198.562C177.422 199.344 174.655 200.516 172.441 202.078C170.228 203.641 168.568 205.529 167.461 207.742C166.354 209.956 165.801 212.462 165.801 215.262C165.801 218.061 166.452 220.633 167.754 222.977C169.056 225.255 170.944 227.046 173.418 228.348C175.957 229.65 179.017 230.301 182.598 230.301C187.415 230.301 191.615 229.324 195.195 227.371C198.841 225.353 201.706 222.911 203.789 220.047C205.872 217.117 206.979 214.35 207.109 211.746L214.727 222.195C213.945 224.865 212.611 227.729 210.723 230.789C208.835 233.849 206.361 236.779 203.301 239.578C200.306 242.312 196.693 244.559 192.461 246.316C188.294 248.074 183.477 248.953 178.008 248.953C171.107 248.953 164.954 247.586 159.551 244.852C154.147 242.052 149.915 238.309 146.855 233.621C143.796 228.868 142.266 223.497 142.266 217.508C142.266 211.909 143.307 206.961 145.391 202.664C147.539 198.302 150.664 194.656 154.766 191.727C158.932 188.797 164.01 186.583 170 185.086C175.99 183.523 182.826 182.742 190.508 182.742H208.965Z" fill="white"/>
</svg>
