<svg width="48" height="48" viewBox="0 0 48 48" fill="none" xmlns="http://www.w3.org/2000/svg">
<path fill-rule="evenodd" clip-rule="evenodd" d="M15.5782 10.807C16.659 10.7869 17.7383 10.8977 18.7925 11.137C19.6801 11.3308 20.5228 11.6914 21.2758 12.1996C21.9712 12.705 22.5215 13.3845 22.8714 14.1698C23.2734 15.1354 23.4674 16.175 23.4406 17.2207C23.4863 18.3688 23.193 19.505 22.5975 20.4877C21.9709 21.4158 21.1048 22.157 20.0911 22.6327C21.4668 23.0036 22.665 23.8532 23.4703 25.0286C24.2434 26.274 24.632 27.7198 24.5874 29.185C24.6129 30.3532 24.3713 31.5118 23.8812 32.5725C23.4281 33.4978 22.7647 34.3042 21.944 34.9271C21.0992 35.5432 20.1484 35.999 19.139 36.2719C18.0922 36.5614 17.0108 36.7069 15.9247 36.7042H4V10.807H15.5782ZM14.8902 21.2814C15.7394 21.3164 16.5753 21.0622 17.2613 20.5603C17.5898 20.2679 17.8453 19.9026 18.0075 19.4938C18.1696 19.0849 18.2339 18.6438 18.1952 18.2057C18.2172 17.694 18.1153 17.1846 17.8982 16.7207C17.714 16.3514 17.4277 16.0427 17.0732 15.8313C16.7141 15.5987 16.3107 15.4431 15.8884 15.3743C15.4303 15.2855 14.9641 15.2451 14.4975 15.2538H9.40219V21.3045H14.8902V21.2814ZM15.1872 32.3068C15.7007 32.3138 16.2132 32.2584 16.7135 32.1418C17.1706 32.0409 17.6041 31.8533 17.9906 31.5891C18.3692 31.3251 18.6751 30.9698 18.8799 30.5562C19.1175 30.0288 19.2266 29.4525 19.1984 28.8748C19.2499 28.3483 19.1802 27.817 18.9945 27.3216C18.8089 26.8262 18.5123 26.38 18.1275 26.0169C17.3119 25.4162 16.3124 25.1186 15.301 25.1754H9.40219V32.3068H15.1872Z" fill="black"/>
<path fill-rule="evenodd" clip-rule="evenodd" d="M32.2815 32.2111C32.7055 32.6041 33.205 32.9069 33.7496 33.1009C34.2942 33.2949 34.8725 33.3762 35.4495 33.3398C36.3642 33.3629 37.2612 33.0846 38.0021 32.5478C38.6049 32.1558 39.0614 31.5758 39.3007 30.8977H43.6089C43.1499 32.828 42.0289 34.5363 40.4409 35.7257C38.9174 36.7369 37.1171 37.249 35.2895 37.1909C33.9851 37.208 32.6906 36.9628 31.4829 36.4699C30.3903 36.0142 29.4105 35.3255 28.6118 34.4519C27.8161 33.5364 27.2049 32.4758 26.8116 31.3284C26.3702 30.0458 26.1542 28.6965 26.1731 27.3403C26.165 26.0067 26.3883 24.6819 26.8331 23.4247C27.4306 21.6561 28.573 20.1222 30.0964 19.0432C31.6198 17.9641 33.4459 17.3954 35.3126 17.4187C36.6908 17.3898 38.0536 17.7124 39.2726 18.3559C40.3746 18.9601 41.3252 19.8063 42.0529 20.8309C42.7974 21.906 43.331 23.1126 43.6254 24.3867C43.9483 25.7549 44.0634 27.1638 43.967 28.5662H31.1347C31.0307 29.8838 31.4418 31.1904 32.2815 32.2111ZM37.9114 22.3621C37.5523 22.003 37.1204 21.7249 36.6448 21.5467C36.1692 21.3686 35.6609 21.2944 35.1542 21.3292C34.482 21.3036 33.8146 21.4525 33.217 21.7615C32.7433 22.0223 32.3252 22.3732 31.9861 22.7944C31.6856 23.1894 31.4618 23.6371 31.3261 24.1145C31.2039 24.5126 31.1275 24.9233 31.0984 25.3388H39.0466C38.9773 24.2558 38.5828 23.2189 37.9147 22.3638L37.9114 22.3621Z" fill="black"/>
<path d="M30.0737 12.5362H40.0333V15.0822H30.0737V12.5362Z" fill="black"/>
</svg>
