<svg width="36" height="36" viewBox="0 0 36 36" fill="none" xmlns="http://www.w3.org/2000/svg">
<g clip-path="url(#clip0_1157_996)">
<path d="M11.1645 8.0249C12.123 8.0249 13.0095 8.0999 13.8195 8.3219C14.5545 8.45697 15.2561 8.73415 15.885 9.1379C16.476 9.5084 16.9185 10.0289 17.2125 10.6964C17.508 11.3639 17.655 12.1814 17.655 13.0709C17.655 14.1104 17.4345 14.9999 16.9185 15.6674C16.476 16.3364 15.738 16.9289 14.853 17.3744C16.107 17.7464 17.0655 18.4139 17.655 19.3034C18.246 20.1944 18.615 21.3074 18.615 22.5689C18.615 23.6084 18.393 24.4979 18.024 25.2404C17.655 25.9829 17.0655 26.6504 16.401 27.0959C15.6792 27.5734 14.8813 27.9245 14.0415 28.1339C13.1565 28.3574 12.2715 28.5059 11.3865 28.5059H1.5V8.0249H11.1645ZM10.5735 16.3349C11.385 16.3349 12.0495 16.1129 12.5655 15.7424C13.0815 15.3719 13.3035 14.7029 13.3035 13.8869C13.3035 13.4414 13.2285 12.9959 13.0815 12.7004C12.9345 12.4034 12.7125 12.1799 12.4185 11.9579C12.123 11.8094 11.8275 11.6609 11.4585 11.5874C11.0895 11.5124 10.722 11.5124 10.278 11.5124H6V16.3364H10.575L10.5735 16.3349ZM10.7955 25.0919C11.238 25.0919 11.6805 25.0169 12.0495 24.9434C12.4221 24.8726 12.7744 24.7204 13.0815 24.4979C13.3821 24.2808 13.6335 24.0027 13.8195 23.6819C13.9665 23.3114 14.115 22.8659 14.115 22.3469C14.115 21.3074 13.8195 20.5649 13.23 20.0459C12.639 19.6004 11.8275 19.3784 10.869 19.3784H6V25.0934H10.7955V25.0919ZM25.0335 25.0169C25.623 25.6109 26.508 25.9079 27.6885 25.9079C28.5 25.9079 29.238 25.6859 29.8275 25.3154C30.4185 24.8699 30.7875 24.4244 30.9345 23.9789H34.5495C33.9585 25.7594 33.0735 27.0209 31.8945 27.8369C30.7125 28.5794 29.3115 29.0249 27.615 29.0249C26.5296 29.0282 25.4532 28.8267 24.4425 28.4309C23.5331 28.0897 22.722 27.5291 22.0815 26.7989C21.3964 26.1158 20.8901 25.2745 20.607 24.3494C20.238 23.3849 20.0895 22.3469 20.0895 21.1589C20.0895 20.0459 20.238 19.0079 20.607 18.0419C20.9618 17.112 21.4867 16.2564 22.155 15.5189C22.8195 14.8514 23.631 14.2589 24.516 13.8869C25.5011 13.491 26.5534 13.2893 27.615 13.2929C28.869 13.2929 29.976 13.5164 30.9345 14.0354C31.8945 14.5544 32.631 15.1484 33.222 16.0394C33.8249 16.8952 34.2741 17.8495 34.5495 18.8594C34.6965 19.8974 34.77 20.9369 34.6965 22.1234H24C24 23.3114 24.4425 24.4244 25.0335 25.0184V25.0169ZM29.6805 17.2259C29.1645 16.7069 28.353 16.4099 27.393 16.4099C26.73 16.4099 26.2125 16.5584 25.77 16.7804C25.3275 17.0039 25.0335 17.3009 24.738 17.5979C24.4665 17.8848 24.2868 18.2462 24.222 18.6359C24.147 19.0079 24.0735 19.3034 24.0735 19.6004H30.7125C30.5655 18.4874 30.1965 17.7464 29.6805 17.2259ZM23.1885 9.4349H31.4505V11.4389H23.19V9.4349H23.1885Z" fill="white"/>
</g>
<defs>
<clipPath id="clip0_1157_996">
<rect width="36" height="36" fill="white"/>
</clipPath>
</defs>
</svg>
