<svg width="36" height="34" viewBox="0 0 36 34" fill="none" xmlns="http://www.w3.org/2000/svg">
<path d="M27.75 0.5H8.25C6.0627 0.502382 3.96566 1.37234 2.419 2.919C0.872341 4.46566 0.00238225 6.5627 0 8.75L0 25.25C0.00238225 27.4373 0.872341 29.5343 2.419 31.081C3.96566 32.6277 6.0627 33.4976 8.25 33.5H27.75C29.9373 33.4976 32.0343 32.6277 33.581 31.081C35.1277 29.5343 35.9976 27.4373 36 25.25V8.75C35.9976 6.5627 35.1277 4.46566 33.581 2.919C32.0343 1.37234 29.9373 0.502382 27.75 0.5ZM27.75 5C28.6597 5.00303 29.5366 5.33982 30.2145 5.9465L20.4645 15.6965C19.8023 16.329 18.9218 16.6819 18.006 16.6819C17.0902 16.6819 16.2097 16.329 15.5475 15.6965L5.7975 5.9465C6.47227 5.34256 7.34445 5.00596 8.25 5H27.75ZM27.75 29H8.25C7.25544 29 6.30161 28.6049 5.59835 27.9016C4.89509 27.1984 4.5 26.2446 4.5 25.25V11.0255L12.3585 18.884C13.0991 19.625 13.9785 20.2127 14.9464 20.6138C15.9142 21.0148 16.9516 21.2212 17.9993 21.2212C19.0469 21.2212 20.0843 21.0148 21.0521 20.6138C22.02 20.2127 22.8994 19.625 23.64 18.884L31.5 11.0255V25.25C31.5 26.2446 31.1049 27.1984 30.4016 27.9016C29.6984 28.6049 28.7446 29 27.75 29Z" fill="white"/>
</svg>
